<svg xmlns="http://www.w3.org/2000/svg" viewBox="0 0 64 64">
  <!-- Stem -->
  <path d="M32 8 Q30 16 28 22" stroke="#5A7A3A" stroke-width="2.5" stroke-linecap="round" fill="none"/>
  <path d="M32 8 Q34 16 37 20" stroke="#5A7A3A" stroke-width="2.5" stroke-linecap="round" fill="none"/>
  <path d="M32 8 Q32 18 32 28" stroke="#5A7A3A" stroke-width="2" stroke-linecap="round" fill="none"/>
  <!-- Leaf -->
  <ellipse cx="38" cy="8" rx="8" ry="4" transform="rotate(-30 38 8)" fill="#34D399" opacity="0.9"/>
  <!-- Berry left (raspberry) -->
  <circle cx="23" cy="36" r="13" fill="url(#g1)"/>
  <circle cx="19" cy="32" r="3" fill="#D63060" opacity="0.4"/>
  <circle cx="25" cy="31" r="3" fill="#D63060" opacity="0.4"/>
  <circle cx="22" cy="37" r="3" fill="#D63060" opacity="0.4"/>
  <circle cx="20" cy="34" r="1.8" fill="white" opacity="0.3"/>
  <!-- Berry right (dark berry) -->
  <circle cx="42" cy="34" r="12" fill="url(#g2)"/>
  <circle cx="38" cy="30" r="2.8" fill="#7A1845" opacity="0.4"/>
  <circle cx="44" cy="29" r="2.8" fill="#7A1845" opacity="0.4"/>
  <circle cx="41" cy="35" r="2.8" fill="#7A1845" opacity="0.4"/>
  <circle cx="39" cy="29" r="1.7" fill="white" opacity="0.3"/>
  <!-- Berry bottom (blueberry) -->
  <circle cx="32" cy="50" r="12" fill="url(#g3)"/>
  <circle cx="28" cy="46" r="2.8" fill="#3A4DB0" opacity="0.4"/>
  <circle cx="35" cy="45" r="2.8" fill="#3A4DB0" opacity="0.4"/>
  <circle cx="31" cy="51" r="2.8" fill="#3A4DB0" opacity="0.4"/>
  <circle cx="29" cy="45" r="1.7" fill="white" opacity="0.3"/>
  <defs>
    <radialGradient id="g1" cx="40%" cy="35%" r="60%">
      <stop offset="0%" stop-color="#F04080"/>
      <stop offset="100%" stop-color="#8C1E40"/>
    </radialGradient>
    <radialGradient id="g2" cx="40%" cy="35%" r="60%">
      <stop offset="0%" stop-color="#B83070"/>
      <stop offset="100%" stop-color="#5A1535"/>
    </radialGradient>
    <radialGradient id="g3" cx="40%" cy="35%" r="60%">
      <stop offset="0%" stop-color="#6070E0"/>
      <stop offset="100%" stop-color="#2A3590"/>
    </radialGradient>
  </defs>
</svg>
